<?xml version="1.0" encoding="utf-8"?>
<!-- Generator: Adobe Illustrator 23.0.2, SVG Export Plug-In . SVG Version: 6.00 Build 0)  -->
<svg version="1.1" id="Layer_1" xmlns="http://www.w3.org/2000/svg" xmlns:xlink="http://www.w3.org/1999/xlink" x="0px" y="0px"
	 viewBox="0 0 419.2 240.3" style="enable-background:new 0 0 419.2 240.3;" xml:space="preserve">
<style type="text/css">
	.st0{display:none;}
	.st1{display:inline;}
	.st2{display:inline;fill:#FFFFFF;}
</style>
<g>
	<path d="M62.4,89.8L27.1,43.9v45.9h-27V0h24.9l35.5,46.1V0h26.9v89.8H62.4z"/>
	<path d="M100.1,89.8V0h29.7v89.8H100.1z"/>
	<path d="M224.8,15.5l-17.2,20.4c-5.4-7.3-13.4-12-20.4-12c-10.8,0-18.6,8.6-18.6,20.5c0,12,7.8,20.8,18.6,20.8
		c6.4,0,14.5-4,20.4-10.2l17.2,18.3c-10,10.9-25.2,17.9-39.1,17.9c-27.5,0-47.5-19.6-47.5-46.4c0-26.4,20.5-45.6,48.7-45.6
		C200.5-0.9,215.5,5.5,224.8,15.5z"/>
	<path d="M323.7,44.8c0,26.6-20.8,46.2-49.3,46.2S225,71.6,225,44.8c0-26.6,20.8-45.7,49.3-45.7S323.7,18.3,323.7,44.8z M255.5,45
		c0,12.3,9,21.4,19.2,21.4c10.2,0,18.4-9.1,18.4-21.4s-8.2-21.1-18.4-21.1C264.3,23.8,255.5,32.7,255.5,45z"/>
	<path d="M394.4,89.8L359,43.9v45.9h-27V0h24.9l35.5,46.1V0h26.9v89.8H394.4z"/>
	<path d="M45.5,113.2c21.6,0,35.6,9,35.6,22.7c0,8.8-5.9,16.4-15.1,19.2c10.8,2.4,17.8,11.4,17.8,22.7c0,15.4-14.2,25.2-36.1,25.2
		H0.1v-89.8H45.5z M29.6,147.8h14.2c4.1,0,6.8-2.6,6.8-6.5c0-3.8-2.7-6.3-6.8-6.3H29.6V147.8z M29.6,181.3h14.2
		c5.5,0,9.1-2.8,9.1-7.2c0-4-3.6-6.5-9.1-6.5H29.6V181.3z"/>
	<path d="M177.7,165c0,23.8-16.8,39.3-42.8,39.3c-26.1,0-43.4-15.5-43.4-39.3v-51.8h29.7V165c0,8.8,6.4,14.6,13.8,14.6
		c7.3,0,12.9-5.6,12.9-14.6v-51.8h29.7V165z"/>
	<path d="M189.3,203v-89.8H219V203H189.3z"/>
	<path d="M298.9,178.3V203h-67.1v-89.8h29.7v65.1H298.9z"/>
	<path d="M356.1,136.7V203h-29.7v-66.4h-25.5v-23.4h80.8v23.4H356.1z"/>
</g>
<rect x="394.4" y="113.2" width="24.8" height="23.4"/>
<rect x="0.1" y="217" width="419.2" height="22.2"/>
<g class="st0">
	<polygon class="st1" points="69.2,316.7 56,337.4 33.3,332.1 32.8,334.2 55.4,339.6 55.4,360 48.2,357.9 39.8,336.9 38,354.3 
		30.5,352.3 31.1,333.1 42.4,314.9 48.7,314.9 48.2,330 61,316.4 66,318.2 66.8,316.2 60.4,313.8 50.6,324.3 50.9,312.7 41.2,312.7 
		28.9,332.5 28.3,354 40,357.1 41.1,346 46.6,359.7 57.6,362.9 57.6,339 69.7,320 79.5,328.8 79.5,347 74.4,350.6 74.4,340.4 
		69.7,337.1 64,344.5 64,356.2 60.4,358.3 61.6,360.2 66.2,357.4 66.2,345.3 70.1,340.1 72.2,341.6 72.2,354.8 81.7,348.1 
		81.7,327.8 	"/>
	<rect x="22" y="367.1" style="display:inline;fill:none;" width="66" height="23.9"/>
	<text transform="matrix(1 0 0 1 31.7373 375.413)" class="st1"><tspan x="0" y="0" style="font-family:'Helvetica-Bold'; font-size:11.6866px; letter-spacing:3;">Nicon</tspan><tspan x="12.9" y="7.3" style="font-family:'Helvetica-Light'; font-size:5.8433px; letter-spacing:1;">Built</tspan></text>
	<path class="st1" d="M154.2,308.7l-21.9,20.3v28.3h43v-28.5L154.2,308.7z M172.1,341.8l-6.3-6l0,0l0,0l-1.1-1l0,0l-8.9-8.3v-11.8
		l16.4,15.5V341.8z M152.6,314.6v11.8l-17.1,15.5v-11.4L152.6,314.6z M135.5,346.2l18.6-16.9l8.3,7.7l-7.3,7.4l-9.9,9.8h-9.7V346.2z
		 M156.2,347.8l6.3,6.4h-12.8L156.2,347.8z M167,354.2l-8.5-8.7l6.3-6.4l7.4,7v8H167z"/>
	<rect x="121" y="363.1" style="display:inline;fill:none;" width="70.3" height="25.5"/>
	<text transform="matrix(1 0 0 1 127.8545 372.3597)" class="st1"><tspan x="0" y="0" style="font-family:'Montserrat-Black'; font-size:12.4453px; letter-spacing:3;">Nicon</tspan><tspan x="11.3" y="7.8" style="font-family:'Helvetica-Light'; font-size:6.2226px; letter-spacing:4;">Built</tspan></text>
	<g class="st1">
		<polygon points="277.4,349.2 284.7,349.2 268.7,331.8 268.7,349.2 274.8,349.2 		"/>
		<polygon points="276,312.3 257.8,326.9 257.8,331.6 260.7,331.6 260.7,349.2 263.4,349.2 263.4,323.5 267.8,323.5 283.8,340.9 
			283.8,316.6 289.2,316.6 289.2,349.2 291.1,349.2 291.4,331.7 294.2,331.7 294.2,326.4 		"/>
	</g>
	<rect x="225.2" y="353.5" style="display:inline;fill:none;" width="103.1" height="37.4"/>
	<text transform="matrix(1 0 0 1 239.5903 367.0302)" class="st1"><tspan x="0" y="0" style="font-family:'Montserrat-Black'; font-size:18.2543px; letter-spacing:5;">nicon</tspan><tspan x="14.5" y="11.4" style="font-family:'Helvetica-Light'; font-size:9.1271px; letter-spacing:6;">built</tspan></text>
	<g class="st1">
		<g>
			<path d="M390.2,327.5v30.7h-5.8l-15.3-18.6v18.6h-7v-27.6v-3.1h5.9l15.3,18.6v-22.6L390.2,327.5z"/>
		</g>
		<polygon points="353.5,336.1 353.1,326.7 383.6,307.8 383.6,318.1 		"/>
		<rect x="409.9" y="292.3" transform="matrix(0.492 -0.8706 0.8706 0.492 -73.6864 522.792)" width="2.3" height="64.5"/>
		<rect x="401.7" y="305.8" transform="matrix(0.4951 -0.8689 0.8689 0.4951 -82.5393 516.2284)" width="2.3" height="46.7"/>
		<path d="M398.5,359.4c-0.6,0-1.2-0.5-1.2-1.2v-58.8c0-0.6,0.5-1.2,1.2-1.2c0.6,0,1.2,0.5,1.2,1.2v58.8
			C399.7,358.9,399.1,359.4,398.5,359.4z"/>
		<path d="M406.3,367.8c-0.6,0-1.2-0.5-1.2-1.1l-0.3-53.4c0-0.6,0.5-1.2,1.1-1.2c0,0,0,0,0,0c0.6,0,1.2,0.5,1.2,1.1l0.3,53.4
			C407.5,367.3,406.9,367.8,406.3,367.8C406.3,367.8,406.3,367.8,406.3,367.8z"/>
		<path d="M390.2,351.1c-0.6,0-1.2-0.5-1.2-1.1c0-0.6,0.5-1.2,1.1-1.2l39.8-0.3c0,0,0,0,0,0c0.6,0,1.2,0.5,1.2,1.1
			c0,0.6-0.5,1.2-1.1,1.2L390.2,351.1C390.2,351.1,390.2,351.1,390.2,351.1z"/>
		<rect x="389.2" y="355.7" transform="matrix(1 -4.882754e-03 4.882754e-03 1 -1.7376 2.0586)" width="63.1" height="2.3"/>
	</g>
	<rect x="355.4" y="370" style="display:inline;fill:none;" width="94.5" height="34.3"/>
	<text transform="matrix(1 0 0 1 369.3526 381.9003)" class="st1"><tspan x="0" y="0" style="font-family:'Helvetica-Bold'; font-size:16.7389px; letter-spacing:4;">Nicon</tspan><tspan x="11.5" y="14.6" style="font-family:'NoteraPersonalUseOnly'; font-size:23.016px;">Built</tspan></text>
	<polygon class="st1" points="540.9,355.4 523.3,344.2 524.8,317.5 536.8,311.3 539.3,316 529.9,320.8 528.8,341.4 543.8,350.9 	"/>
	<polygon class="st1" points="499.6,346.2 496.8,341.7 513.8,331.1 527.6,340.6 524.6,345 513.6,337.5 	"/>
	<rect x="514.1" y="352.6" class="st1" width="5.4" height="10.4"/>
	<rect x="536.6" y="331" class="st1" width="5.4" height="5.6"/>
	<g class="st1">
		<path d="M539.2,310.1l-7,3.5c9.3,3.6,15.8,12.5,15.8,23c0,13.6-11.1,24.7-24.7,24.7c-12.3,0-22.6-9.1-24.4-20.9l-5.7,3.6
			c3.3,13.5,15.5,23.6,30,23.6c17.1,0,30.9-13.9,30.9-30.9C554.2,325.4,548.2,315.5,539.2,310.1z"/>
		<path d="M498.6,336.6c0-13.6,11.1-24.7,24.7-24.7c1.8,0,3.5,0.2,5.1,0.5l7.8-3.9c-3.9-1.8-8.3-2.9-13-2.9
			c-17.1,0-30.9,13.9-30.9,30.9c0,1.5,0.1,3,0.4,4.5l5.9-3.7C498.7,337.2,498.6,336.9,498.6,336.6z"/>
	</g>
	<rect x="477.1" y="371.5" style="display:inline;fill:none;" width="94.5" height="34.3"/>
	<text transform="matrix(1 0 0 1 488.5586 384.0404)" class="st1"><tspan x="0" y="0" style="font-family:'Mermaid-Bold'; font-size:16.7389px; letter-spacing:4;">Nicon</tspan><tspan x="14" y="14.6" style="font-family:'NoteraPersonalUseOnly'; font-size:23.016px;">Built</tspan></text>
	<rect x="-223.7" y="283.5" style="display:inline;fill:none;" width="258" height="139.9"/>
	<text transform="matrix(1 0 0 1 -223.6615 334.2059)" class="st1"><tspan x="0" y="0" style="font-family:'Montserrat-Black'; font-size:68.3047px;">Nicon </tspan><tspan x="0" y="60.4" style="font-family:'Montserrat-Black'; font-size:68.3047px;">built</tspan></text>
	<rect x="-5.5" y="346.8" class="st1" width="19.1" height="11.8"/>
	<g class="st1">
		<path d="M39.8,293.2v-21.1h1.6l2.1,4.8v-4.8h1.8v10.1h-1.5l-2.1-5.2v16.2H39.8z"/>
		<path d="M46.7,282.2v-10.1H49v10.1H46.7z"/>
		<path d="M53.3,282.3c-0.6,0-1-0.1-1.4-0.2s-0.7-0.4-0.9-0.7c-0.2-0.3-0.4-0.7-0.5-1.1c-0.1-0.4-0.2-0.9-0.2-1.4v-3.6
			c0-0.5,0.1-1,0.2-1.4c0.1-0.4,0.3-0.8,0.5-1.1c0.2-0.3,0.5-0.5,0.9-0.7s0.9-0.2,1.4-0.2c0.5,0,1,0.1,1.4,0.2s0.7,0.3,0.9,0.6
			c0.2,0.3,0.4,0.6,0.5,0.9s0.1,0.7,0.1,1.2v0.9h-2.2v-1c0-0.2,0-0.3,0-0.4c0-0.1,0-0.2,0-0.3c0-0.1-0.1-0.2-0.1-0.3
			c0-0.1-0.1-0.1-0.2-0.2c-0.1-0.1-0.2-0.1-0.4-0.1s-0.3,0-0.4,0.1c-0.1,0.1-0.2,0.1-0.2,0.2c-0.1,0.1-0.1,0.2-0.1,0.3
			s0,0.2-0.1,0.3c0,0.1,0,0.2,0,0.4v4.7c0,0.4,0.1,0.7,0.2,0.9c0.1,0.2,0.3,0.3,0.6,0.3c0.1,0,0.2,0,0.3-0.1
			c0.1-0.1,0.2-0.1,0.2-0.2c0-0.1,0.1-0.2,0.1-0.3s0-0.2,0-0.3c0-0.1,0-0.2,0-0.4v-1.1h2.2v0.9c0,0.4,0,0.7-0.1,1
			c-0.1,0.3-0.2,0.6-0.3,0.8s-0.3,0.5-0.5,0.6c-0.2,0.2-0.5,0.3-0.8,0.4C54.2,282.3,53.8,282.3,53.3,282.3z"/>
		<path d="M60.3,282.3c-0.6,0-1-0.1-1.4-0.2s-0.7-0.4-0.9-0.7c-0.2-0.3-0.4-0.6-0.5-1c-0.1-0.4-0.2-0.9-0.2-1.4v-3.7
			c0-0.5,0.1-1,0.2-1.4c0.1-0.4,0.3-0.7,0.5-1c0.2-0.3,0.5-0.5,0.9-0.7c0.4-0.1,0.9-0.2,1.4-0.2c1.1,0,1.9,0.3,2.3,0.8
			c0.5,0.6,0.7,1.4,0.7,2.5v3.7c0,1.1-0.2,1.9-0.7,2.5C62.2,282,61.4,282.3,60.3,282.3z M60,280.7c0.1,0,0.2,0.1,0.3,0.1
			s0.2,0,0.3-0.1s0.2-0.1,0.2-0.2s0.1-0.2,0.1-0.3c0-0.1,0-0.2,0.1-0.3c0-0.1,0-0.2,0-0.4v-4.8c0-0.1,0-0.3,0-0.3
			c0-0.1,0-0.2-0.1-0.3c0-0.1-0.1-0.2-0.1-0.3s-0.1-0.1-0.2-0.2s-0.2-0.1-0.3-0.1s-0.2,0-0.3,0.1s-0.2,0.1-0.2,0.2
			c-0.1,0.1-0.1,0.2-0.1,0.3c0,0.1,0,0.2-0.1,0.3c0,0.1,0,0.2,0,0.4v4.8c0,0.1,0,0.3,0,0.4c0,0.1,0,0.2,0.1,0.3
			c0,0.1,0.1,0.2,0.1,0.3S59.9,280.6,60,280.7z"/>
		<path d="M64.7,282.2v-10.1h1.6l2.1,4.8v-4.8h1.8v10.1h-1.5l-2.1-5.2v5.2H64.7z"/>
		<path d="M43,293.2v-10.1h2.6c0.4,0,0.7,0,1,0.1c0.3,0,0.6,0.1,0.9,0.2c0.3,0.1,0.5,0.3,0.7,0.5s0.3,0.4,0.5,0.8
			c0.1,0.3,0.2,0.6,0.2,1c0,0,0,0.1,0,0.1c0,1.2-0.5,1.8-1.5,2c0.6,0.1,1,0.3,1.3,0.7s0.5,1,0.5,1.7c0,0,0,0,0,0.1
			c0,1-0.3,1.7-0.8,2.2c-0.5,0.5-1.3,0.7-2.3,0.7H43z M45.2,287.1h0.4c0.5,0,0.8-0.1,1-0.3c0.2-0.2,0.3-0.6,0.3-1
			c0-0.8-0.4-1.2-1.3-1.2h-0.4V287.1z M45.2,291.6h0.5c0.5,0,0.8-0.1,1-0.4s0.3-0.6,0.3-1.1c0-0.6-0.1-1-0.3-1.2
			c-0.2-0.2-0.5-0.4-1-0.4h-0.4V291.6z"/>
		<path d="M53.2,293.3c-0.5,0-0.9,0-1.2-0.1c-0.3-0.1-0.6-0.2-0.9-0.4c-0.2-0.2-0.4-0.4-0.5-0.7c-0.1-0.3-0.2-0.6-0.3-0.9
			c-0.1-0.3-0.1-0.7-0.1-1.2v-6.9h2.2v7.2c0,0.2,0,0.3,0,0.4c0,0.1,0,0.2,0.1,0.4c0,0.1,0.1,0.2,0.1,0.3s0.1,0.2,0.2,0.2
			c0.1,0.1,0.2,0.1,0.4,0.1c0.1,0,0.3,0,0.4-0.1c0.1-0.1,0.2-0.1,0.2-0.2s0.1-0.2,0.1-0.3c0-0.1,0-0.3,0.1-0.4c0-0.1,0-0.2,0-0.4
			v-7.2h2.2v6.9c0,0.6,0,1-0.1,1.4c-0.1,0.4-0.3,0.7-0.5,1c-0.2,0.3-0.5,0.5-0.9,0.6C54.2,293.2,53.7,293.3,53.2,293.3z"/>
		<path d="M57.6,293.2v-10.1h2.2v10.1H57.6z"/>
		<path d="M61.3,293.2v-10.1h2.2v8.6h2.3v1.5H61.3z"/>
		<path d="M66.5,293.2v-8.4H65v-1.6h5.3v1.6h-1.5v8.4H66.5z"/>
	</g>
	<g class="st1">
		<rect x="288.6" y="294.8" transform="matrix(6.123234e-17 -1 1 6.123234e-17 -6.4812 585.5213)" width="1.9" height="2.4"/>
		<g>
			<path d="M265.9,285.9h-3.1l-3.2-6.3h-0.1c0.1,1,0.1,1.7,0.1,2.3v4h-2.1v-8.9h3.1l3.2,6.2h0c-0.1-0.9-0.1-1.6-0.1-2.2v-4h2.1
				V285.9z"/>
			<path d="M266.8,285.9v-8.9h2.4v8.9H266.8z"/>
			<path d="M274.1,278.9c-0.6,0-1,0.2-1.3,0.7c-0.3,0.5-0.5,1.1-0.5,1.9c0,1.7,0.7,2.6,2,2.6c0.4,0,0.8-0.1,1.1-0.2s0.7-0.2,1.1-0.4
				v2c-0.7,0.3-1.6,0.5-2.5,0.5c-1.3,0-2.4-0.4-3.1-1.2c-0.7-0.8-1.1-1.9-1.1-3.4c0-0.9,0.2-1.7,0.5-2.4c0.3-0.7,0.8-1.2,1.5-1.6
				s1.4-0.6,2.3-0.6c1,0,1.9,0.2,2.8,0.6l-0.7,1.9c-0.3-0.2-0.7-0.3-1-0.4C274.8,279,274.5,278.9,274.1,278.9z"/>
			<path d="M285.5,281.5c0,1.5-0.4,2.6-1.1,3.4c-0.7,0.8-1.8,1.2-3.2,1.2c-1.4,0-2.5-0.4-3.2-1.2c-0.7-0.8-1.1-1.9-1.1-3.4
				c0-1.5,0.4-2.6,1.1-3.4c0.7-0.8,1.8-1.2,3.2-1.2c1.4,0,2.5,0.4,3.2,1.2C285.2,278.9,285.5,280,285.5,281.5z M279.4,281.5
				c0,1.7,0.6,2.6,1.8,2.6c0.6,0,1.1-0.2,1.4-0.6c0.3-0.4,0.4-1.1,0.4-2c0-0.9-0.1-1.5-0.4-2c-0.3-0.4-0.7-0.6-1.3-0.6
				C280,278.9,279.4,279.8,279.4,281.5z"/>
			<path d="M294.6,285.9h-3.1l-3.2-6.3h-0.1c0.1,1,0.1,1.7,0.1,2.3v4h-2.1v-8.9h3.1l3.2,6.2h0c-0.1-0.9-0.1-1.6-0.1-2.2v-4h2.1
				V285.9z"/>
			<path d="M257.4,288.1h3.1c1.2,0,2.1,0.2,2.7,0.5c0.6,0.4,0.9,0.9,0.9,1.7c0,0.5-0.1,0.9-0.4,1.3c-0.3,0.4-0.6,0.6-1,0.7v0.1
				c0.6,0.1,0.9,0.4,1.2,0.7c0.2,0.3,0.4,0.8,0.4,1.3c0,0.8-0.3,1.4-0.9,1.9s-1.4,0.7-2.5,0.7h-3.5V288.1z M259.8,291.5h0.7
				c0.3,0,0.6-0.1,0.8-0.2c0.2-0.1,0.3-0.4,0.3-0.6c0-0.5-0.4-0.7-1.1-0.7h-0.7V291.5z M259.8,293.2v1.9h0.8c0.7,0,1.1-0.3,1.1-0.9
				c0-0.3-0.1-0.5-0.3-0.7c-0.2-0.2-0.5-0.2-0.9-0.2H259.8z"/>
			<path d="M273.4,288.1v5.3c0,1.2-0.3,2.1-1,2.7c-0.7,0.6-1.6,1-2.8,1c-1.2,0-2.1-0.3-2.8-0.9c-0.6-0.6-1-1.5-1-2.7v-5.4h2.4v5.2
				c0,0.6,0.1,1.1,0.4,1.4c0.2,0.3,0.6,0.4,1,0.4c0.5,0,0.8-0.1,1.1-0.4c0.2-0.3,0.3-0.7,0.3-1.4v-5.2H273.4z"/>
			<path d="M275.2,296.9v-8.9h2.4v8.9H275.2z"/>
			<path d="M279.6,296.9v-8.9h2.4v6.9h3.4v1.9H279.6z"/>
			<path d="M290.7,293.9h-2.4V290h-2.2v-2h6.7v2h-2.2V293.9z"/>
		</g>
	</g>
	<g class="st1">
		<path d="M144.8,284.8h-2.1l-3.1-5.5v5.5h-2.1V276h2.1l3.1,5.5V276h2.1V284.8z"/>
		<path d="M148.5,284.8h-2.1V276h2.1V284.8z"/>
		<path d="M157.1,281.8c0,0.6-0.2,1.2-0.5,1.6c-0.3,0.5-0.7,0.8-1.3,1.1c-0.5,0.3-1.2,0.4-1.9,0.4c-1.2,0-2.1-0.4-2.7-1.1
			c-0.7-0.8-1-1.8-1-3.2v-0.4c0-0.9,0.2-1.6,0.5-2.3c0.3-0.7,0.7-1.2,1.3-1.5c0.6-0.4,1.2-0.5,2-0.5c1.1,0,1.9,0.3,2.6,0.8
			c0.7,0.6,1,1.3,1.1,2.3H155c0-0.5-0.2-0.9-0.4-1.2s-0.6-0.4-1.2-0.4c-0.5,0-0.9,0.2-1.2,0.6c-0.2,0.4-0.4,1-0.4,1.9v0.6
			c0,0.9,0.1,1.6,0.4,2c0.2,0.4,0.6,0.6,1.2,0.6c0.5,0,0.9-0.1,1.1-0.3s0.4-0.6,0.4-1.1H157.1z"/>
		<path d="M165.6,280.6c0,0.9-0.2,1.6-0.5,2.3c-0.3,0.7-0.8,1.2-1.4,1.5c-0.6,0.4-1.3,0.5-2,0.5s-1.4-0.2-2-0.5
			c-0.6-0.3-1-0.8-1.4-1.5s-0.5-1.4-0.5-2.2v-0.5c0-0.9,0.2-1.6,0.5-2.3c0.3-0.7,0.8-1.2,1.4-1.5c0.6-0.4,1.3-0.5,2-0.5
			c0.7,0,1.4,0.2,2,0.5s1,0.9,1.4,1.5c0.3,0.7,0.5,1.4,0.5,2.3V280.6z M163.4,280.2c0-0.9-0.1-1.5-0.4-2c-0.3-0.5-0.7-0.7-1.3-0.7
			c-1.1,0-1.6,0.8-1.7,2.4l0,0.6c0,0.9,0.1,1.5,0.4,2s0.7,0.7,1.3,0.7c0.5,0,1-0.2,1.2-0.7c0.3-0.5,0.4-1.1,0.4-2V280.2z"/>
		<path d="M174.1,284.8H172l-3.1-5.5v5.5h-2.1V276h2.1l3.1,5.5V276h2.1V284.8z"/>
		<path d="M137.5,295.8V287h3.2c1.1,0,2,0.2,2.6,0.6c0.6,0.4,0.9,1,0.9,1.8c0,0.5-0.1,0.8-0.3,1.2c-0.2,0.3-0.5,0.6-0.9,0.7
			c0.5,0.1,0.8,0.3,1.1,0.7s0.4,0.7,0.4,1.2c0,0.9-0.3,1.5-0.8,2s-1.4,0.7-2.4,0.7H137.5z M139.6,290.7h1.1c0.5,0,0.8-0.1,1-0.3
			c0.2-0.2,0.3-0.4,0.3-0.7c0-0.4-0.1-0.6-0.3-0.8c-0.2-0.2-0.6-0.2-1-0.2h-1V290.7z M139.6,292.1v2.1h1.4c0.4,0,0.7-0.1,0.9-0.3
			s0.3-0.4,0.3-0.7c0-0.7-0.4-1.1-1.1-1.1H139.6z"/>
		<path d="M152.4,287v3.8c0,0.7-0.1,1.2-0.4,1.7c-0.3,0.5-0.7,0.8-1.2,1.1c-0.5,0.3-1.1,0.4-1.9,0.4c-1.1,0-1.9-0.3-2.5-0.8
			c-0.6-0.6-0.9-1.3-0.9-2.3V287h2.1v3.9c0,1,0.5,1.5,1.3,1.5c0.4,0,0.8-0.1,1-0.4s0.3-0.6,0.3-1.2V287H152.4z"/>
		<path d="M156,295.8h-2.1V287h2.1V295.8z"/>
		<path d="M159.6,294.2h3.7v1.6h-5.8V287h2.1V294.2z"/>
		<path d="M170,288.6h-2.7v7.2h-2.1v-7.2h-2.6V287h7.4V288.6z"/>
		<path d="M145.5,295.6v-1.1h7v1.1H145.5z"/>
	</g>
	<rect x="371" y="269.7" style="display:inline;fill:none;" width="70.3" height="25.5"/>
	<text transform="matrix(1 0 0 1 371.0163 278.8954)" class="st1"><tspan x="0" y="0" style="font-family:'Montserrat-Black'; font-size:12.4453px;">Ncon </tspan><tspan x="0" y="11" style="font-family:'Montserrat-Black'; font-size:12.4453px;">built</tspan></text>
	<circle class="st1" cx="378.7" cy="267.2" r="1.6"/>
	<rect x="376.7" y="270.1" class="st2" width="0.8" height="9.4"/>
	<g class="st1">
		<path d="M906.1,301.4l-8.4-10.9v5.1h-6.4V280h5.9l8.5,11v-11h6.4v21.4H906.1z"/>
		<path d="M915.1,301.4V280h7.1v21.4H915.1z"/>
		<path d="M944.8,283.7l-4.1,4.9c-1.3-1.7-3.2-2.9-4.9-2.9c-2.6,0-4.4,2-4.4,4.9c0,2.9,1.9,4.9,4.4,4.9c1.5,0,3.5-0.9,4.9-2.4
			l4.1,4.4c-2.4,2.6-6,4.3-9.3,4.3c-6.6,0-11.3-4.7-11.3-11.1c0-6.3,4.9-10.9,11.6-10.9C939,279.8,942.6,281.3,944.8,283.7z"/>
		<path d="M968.4,290.7c0,6.4-4.9,11-11.8,11s-11.8-4.6-11.8-11c0-6.4,4.9-10.9,11.8-10.9S968.4,284.4,968.4,290.7z M952.1,290.7
			c0,2.9,2.1,5.1,4.6,5.1c2.4,0,4.4-2.2,4.4-5.1c0-2.9-2-5-4.4-5C954.2,285.7,952.1,287.8,952.1,290.7z"/>
		<path d="M985.2,301.4l-8.4-10.9v10.9h-6.4V280h5.9l8.5,11v-11h6.4v21.4H985.2z"/>
		<path d="M902.1,307c5.2,0,8.5,2.1,8.5,5.4c0,2.1-1.4,3.9-3.6,4.6c2.6,0.6,4.2,2.7,4.2,5.4c0,3.7-3.4,6-8.6,6h-11.4V307H902.1z
			 M898.3,315.2h3.4c1,0,1.6-0.6,1.6-1.6c0-0.9-0.6-1.5-1.6-1.5h-3.4V315.2z M898.3,323.2h3.4c1.3,0,2.2-0.7,2.2-1.7
			c0-0.9-0.9-1.6-2.2-1.6h-3.4V323.2z"/>
		<path d="M933.6,319.3c0,5.7-4,9.4-10.2,9.4c-6.2,0-10.4-3.7-10.4-9.4V307h7.1v12.3c0,2.1,1.5,3.5,3.3,3.5c1.7,0,3.1-1.3,3.1-3.5
			V307h7.1V319.3z"/>
		<path d="M936.3,328.4V307h7.1v21.4H936.3z"/>
		<path d="M962.5,322.5v5.9h-16V307h7.1v15.5H962.5z"/>
		<path d="M976.1,312.6v15.8H969v-15.8h-6.1V307h19.3v5.6H976.1z"/>
	</g>
	<rect x="984" y="307" class="st1" width="7.2" height="5.6"/>
	<rect x="891.2" y="331.7" class="st1" width="99.9" height="5.3"/>
	
		<rect x="892.3" y="296" transform="matrix(6.123234e-17 -1 1 6.123234e-17 595.2094 1193.7118)" class="st1" width="4.3" height="6.5"/>
	<g class="st1">
		<path d="M636.8,306.8l-7.5-9.7v4.5h-5.7v-13.8h5.3l7.5,9.8v-9.8h5.7v19H636.8z"/>
		<path d="M644.7,306.8v-19h6.3v19H644.7z"/>
		<path d="M671.1,291.1l-3.6,4.3c-1.1-1.5-2.8-2.5-4.3-2.5c-2.3,0-3.9,1.8-3.9,4.3c0,2.5,1.7,4.4,3.9,4.4c1.4,0,3.1-0.8,4.3-2.2
			l3.6,3.9c-2.1,2.3-5.3,3.8-8.3,3.8c-5.8,0-10-4.1-10-9.8c0-5.6,4.3-9.6,10.3-9.6C666,287.6,669.1,289,671.1,291.1z"/>
		<path d="M692,297.3c0,5.6-4.4,9.8-10.4,9.8s-10.4-4.1-10.4-9.8c0-5.6,4.4-9.7,10.4-9.7S692,291.7,692,297.3z M677.6,297.3
			c0,2.6,1.9,4.5,4.1,4.5c2.2,0,3.9-1.9,3.9-4.5c0-2.6-1.7-4.5-3.9-4.5C679.5,292.9,677.6,294.7,677.6,297.3z"/>
		<path d="M707,306.8l-7.5-9.7v9.7h-5.7v-19h5.3l7.5,9.8v-9.8h5.7v19H707z"/>
		<path d="M633.2,311.8c4.6,0,7.5,1.9,7.5,4.8c0,1.9-1.2,3.5-3.2,4.1c2.3,0.5,3.8,2.4,3.8,4.8c0,3.3-3,5.3-7.6,5.3h-10.1v-19H633.2z
			 M629.8,319.1h3c0.9,0,1.4-0.5,1.4-1.4c0-0.8-0.6-1.3-1.4-1.3h-3V319.1z M629.8,326.2h3c1.2,0,1.9-0.6,1.9-1.5
			c0-0.8-0.8-1.4-1.9-1.4h-3V326.2z"/>
		<path d="M661.2,322.7c0,5-3.5,8.3-9,8.3c-5.5,0-9.2-3.3-9.2-8.3v-10.9h6.3v10.9c0,1.9,1.4,3.1,2.9,3.1c1.5,0,2.7-1.2,2.7-3.1
			v-10.9h6.3V322.7z"/>
		<path d="M663.6,330.8v-13.5h6.3v13.5H663.6z"/>
		<path d="M686.8,325.5v5.2h-14.2v-19h6.3v13.8H686.8z"/>
		<path d="M698.9,316.7v14h-6.3v-14h-5.4v-5h17.1v5H698.9z"/>
	</g>
	<rect x="705.9" y="311.8" class="st1" width="6.4" height="5"/>
	
		<rect x="624.5" y="302" transform="matrix(6.123234e-17 -1 1 6.123234e-17 321.5682 931.3688)" class="st1" width="3.8" height="5.8"/>
	
		<rect x="664.8" y="310.8" transform="matrix(6.123234e-17 -1 1 6.123234e-17 353.0396 980.429)" class="st1" width="3.8" height="5.8"/>
	<g class="st1">
		<path d="M770.7,308.4l-7.5-9.7v9.7h-5.7v-19h5.3l7.5,9.8v-9.8h5.7v19H770.7z"/>
		<path d="M778.7,308.4v-19h6.3v19H778.7z"/>
		<path d="M805,292.7l-3.6,4.3c-1.1-1.5-2.8-2.5-4.3-2.5c-2.3,0-3.9,1.8-3.9,4.3c0,2.5,1.7,4.4,3.9,4.4c1.4,0,3.1-0.8,4.3-2.2
			l3.6,3.9c-2.1,2.3-5.3,3.8-8.3,3.8c-5.8,0-10-4.1-10-9.8c0-5.6,4.3-9.6,10.3-9.6C799.9,289.2,803.1,290.6,805,292.7z"/>
		<path d="M825.9,298.9c0,5.6-4.4,9.8-10.4,9.8s-10.4-4.1-10.4-9.8c0-5.6,4.4-9.7,10.4-9.7S825.9,293.3,825.9,298.9z M811.5,298.9
			c0,2.6,1.9,4.5,4.1,4.5c2.2,0,3.9-1.9,3.9-4.5c0-2.6-1.7-4.5-3.9-4.5C813.4,294.5,811.5,296.3,811.5,298.9z"/>
		<path d="M840.9,308.4l-7.5-9.7v9.7h-5.7v-19h5.3l7.5,9.8v-9.8h5.7v19H840.9z"/>
		<path d="M767.1,313.4c4.6,0,7.5,1.9,7.5,4.8c0,1.9-1.2,3.5-3.2,4.1c2.3,0.5,3.8,2.4,3.8,4.8c0,3.3-3,5.3-7.6,5.3h-10.1v-19H767.1z
			 M763.8,320.7h3c0.9,0,1.4-0.5,1.4-1.4c0-0.8-0.6-1.3-1.4-1.3h-3V320.7z M763.8,327.8h3c1.2,0,1.9-0.6,1.9-1.5
			c0-0.8-0.8-1.4-1.9-1.4h-3V327.8z"/>
		<path d="M795.1,324.3c0,5-3.5,8.3-9,8.3c-5.5,0-9.2-3.3-9.2-8.3v-10.9h6.3v10.9c0,1.9,1.4,3.1,2.9,3.1c1.5,0,2.7-1.2,2.7-3.1
			v-10.9h6.3V324.3z"/>
		<path d="M797.5,332.4v-19h6.3v19H797.5z"/>
		<path d="M820.7,327.1v5.2h-14.2v-19h6.3v13.8H820.7z"/>
		<path d="M832.8,318.3v14h-6.3v-14h-5.4v-5h17.1v5H832.8z"/>
	</g>
	<rect x="840.7" y="313.4" class="st1" width="5.4" height="4.7"/>
	<rect x="756.3" y="297.5" class="st2" width="90.7" height="2.8"/>
</g>
</svg>
